<svg width="474" height="502" viewBox="0 0 474 502" fill="none" xmlns="http://www.w3.org/2000/svg">
<g clip-path="url(#clip0_1020_76)">
<path d="M237 502C355.992 502 452.454 405.677 452.454 286.857C452.454 168.037 355.992 71.7143 237 71.7143C118.008 71.7143 21.5454 168.037 21.5454 286.857C21.5454 405.677 118.008 502 237 502Z" fill="#E6E6E6"/>
<mask id="mask0_1020_76" style="mask-type:luminance" maskUnits="userSpaceOnUse" x="21" y="71" width="432" height="431">
<path d="M237 502C355.992 502 452.454 405.677 452.454 286.857C452.454 168.037 355.992 71.7143 237 71.7143C118.008 71.7143 21.5454 168.037 21.5454 286.857C21.5454 405.677 118.008 502 237 502Z" fill="white"/>
</mask>
<g mask="url(#mask0_1020_76)">
<path d="M452.454 71.7143H21.5454V502H452.454V71.7143Z" fill="#65C9FF"/>
</g>
<mask id="mask1_1020_76" style="mask-type:luminance" maskUnits="userSpaceOnUse" x="0" y="0" width="474" height="502">
<path d="M21.5455 286.857C21.5455 405.677 118.008 502 237 502C355.992 502 452.455 405.677 452.455 286.857H474V0H0V286.857H21.5455Z" fill="white"/>
</mask>
<g mask="url(#mask1_1020_76)">
<path d="M280.091 323.81V356.779H287.273C358.668 356.779 416.545 414.572 416.545 485.864V502H57.4546V485.864C57.4546 414.572 115.332 356.779 186.727 356.779H193.909V323.81C162.96 309.129 140.714 279.125 137.002 243.616C126.544 242.139 118.5 233.165 118.5 222.314V197.214C118.5 186.554 126.265 177.705 136.455 175.997V164.943C136.455 109.493 181.47 64.5429 237 64.5429C292.53 64.5429 337.545 109.493 337.545 164.943V175.997C347.735 177.705 355.5 186.554 355.5 197.214V222.314C355.5 233.165 347.456 242.139 336.998 243.616C333.286 279.125 311.04 309.129 280.091 323.81Z" fill="#D0C6AC"/>
<mask id="mask2_1020_76" style="mask-type:luminance" maskUnits="userSpaceOnUse" x="57" y="64" width="360" height="438">
<path d="M280.091 323.81V356.779H287.273C358.668 356.779 416.545 414.572 416.545 485.864V502H57.4546V485.864C57.4546 414.572 115.332 356.779 186.727 356.779H193.909V323.81C162.96 309.129 140.714 279.125 137.002 243.616C126.544 242.139 118.5 233.165 118.5 222.314V197.214C118.5 186.554 126.265 177.705 136.455 175.997V164.943C136.455 109.493 181.47 64.5429 237 64.5429C292.53 64.5429 337.545 109.493 337.545 164.943V175.997C347.735 177.705 355.5 186.554 355.5 197.214V222.314C355.5 233.165 347.456 242.139 336.998 243.616C333.286 279.125 311.04 309.129 280.091 323.81Z" fill="white"/>
</mask>
<g mask="url(#mask2_1020_76)">
<path d="M531.455 64.5429H57.4546V566.543H531.455V64.5429Z" fill="#EDB98A"/>
</g>
<mask id="mask3_1020_76" style="mask-type:luminance" maskUnits="userSpaceOnUse" x="57" y="64" width="360" height="438">
<path d="M280.091 323.81V356.779H287.273C358.668 356.779 416.545 414.572 416.545 485.864V502H57.4546V485.864C57.4546 414.572 115.332 356.779 186.727 356.779H193.909V323.81C162.96 309.129 140.714 279.125 137.002 243.616C126.544 242.139 118.5 233.165 118.5 222.314V197.214C118.5 186.554 126.265 177.705 136.455 175.997V164.943C136.455 109.493 181.47 64.5429 237 64.5429C292.53 64.5429 337.545 109.493 337.545 164.943V175.997C347.735 177.705 355.5 186.554 355.5 197.214V222.314C355.5 233.165 347.456 242.139 336.998 243.616C333.286 279.125 311.04 309.129 280.091 323.81Z" fill="white"/>
</mask>
<g mask="url(#mask3_1020_76)">
<path fill-rule="evenodd" clip-rule="evenodd" d="M337.545 206.179V247.414C337.545 302.864 292.53 347.814 237 347.814C181.47 347.814 136.455 302.864 136.455 247.414V206.179V233.071C136.455 288.521 181.47 333.471 237 333.471C292.53 333.471 337.545 288.521 337.545 233.071V206.179Z" fill="black" fill-opacity="0.1"/>
</g>
<path fill-rule="evenodd" clip-rule="evenodd" d="M193.909 328.22C161.737 331.815 136.957 341.632 136.462 366.899C90.0357 386.483 57.4546 432.374 57.4546 485.863V502H416.545V485.863C416.545 432.374 383.964 386.483 337.538 366.899C337.043 341.632 312.263 331.815 280.091 328.22V362.157C280.091 385.921 260.798 405.186 237 405.186C213.202 405.186 193.909 385.921 193.909 362.157V328.22Z" fill="#B7C1DB"/>
<mask id="mask4_1020_76" style="mask-type:luminance" maskUnits="userSpaceOnUse" x="57" y="328" width="360" height="174">
<path fill-rule="evenodd" clip-rule="evenodd" d="M193.909 328.22C161.737 331.815 136.957 341.632 136.462 366.899C90.0357 386.483 57.4546 432.374 57.4546 485.863V502H416.545V485.863C416.545 432.374 383.964 386.483 337.538 366.899C337.043 341.632 312.263 331.815 280.091 328.22V362.157C280.091 385.921 260.798 405.186 237 405.186C213.202 405.186 193.909 385.921 193.909 362.157V328.22Z" fill="white"/>
</mask>
<g mask="url(#mask4_1020_76)">
<path d="M474 304.786H0V502H474V304.786Z" fill="#262E33"/>
</g>
<mask id="mask5_1020_76" style="mask-type:luminance" maskUnits="userSpaceOnUse" x="57" y="328" width="360" height="174">
<path fill-rule="evenodd" clip-rule="evenodd" d="M193.909 328.22C161.737 331.815 136.957 341.632 136.462 366.899C90.0357 386.483 57.4546 432.374 57.4546 485.863V502H416.545V485.863C416.545 432.374 383.964 386.483 337.538 366.899C337.043 341.632 312.263 331.815 280.091 328.22V362.157C280.091 385.921 260.798 405.186 237 405.186C213.202 405.186 193.909 385.921 193.909 362.157V328.22Z" fill="white"/>
</mask>
<g mask="url(#mask5_1020_76)">
<path fill-rule="evenodd" clip-rule="evenodd" d="M183.137 415.475V502H170.568V409.041C174.525 411.389 178.732 413.542 183.137 415.475ZM303.432 409.041V481.382C303.432 484.848 300.619 487.657 297.148 487.657C293.677 487.657 290.864 484.848 290.864 481.382V415.475C295.268 413.542 299.475 411.389 303.432 409.041Z" fill="#F4F4F4"/>
</g>
<mask id="mask6_1020_76" style="mask-type:luminance" maskUnits="userSpaceOnUse" x="57" y="328" width="360" height="174">
<path fill-rule="evenodd" clip-rule="evenodd" d="M193.909 328.22C161.737 331.815 136.957 341.632 136.462 366.899C90.0357 386.483 57.4546 432.374 57.4546 485.863V502H416.545V485.863C416.545 432.374 383.964 386.483 337.538 366.899C337.043 341.632 312.263 331.815 280.091 328.22V362.157C280.091 385.921 260.798 405.186 237 405.186C213.202 405.186 193.909 385.921 193.909 362.157V328.22Z" fill="white"/>
</mask>
<g mask="url(#mask6_1020_76)">
<path fill-rule="evenodd" clip-rule="evenodd" d="M163.315 327.599C136.292 332.703 117.603 342.871 117.603 362.709C117.603 398.05 176.92 426.7 237 426.7C297.08 426.7 356.398 398.05 356.398 362.709C356.398 342.871 337.709 332.703 310.685 327.599C326.997 333.605 337.546 343.702 337.546 360.502C337.546 397.062 287.594 426.7 237 426.7C186.407 426.7 136.455 397.062 136.455 360.502C136.455 343.702 147.003 333.605 163.315 327.599Z" fill="black" fill-opacity="0.16"/>
</g>
<path fill-rule="evenodd" clip-rule="evenodd" d="M203.098 267.365C204.997 284.383 219.451 297.614 237 297.614C254.603 297.614 269.092 284.301 270.919 267.208C271.066 265.832 269.528 263.55 267.599 263.55C240.858 263.55 220.37 263.55 206.633 263.55C204.694 263.55 202.908 265.663 203.098 267.365Z" fill="black" fill-opacity="0.7"/>
<mask id="mask7_1020_76" style="mask-type:luminance" maskUnits="userSpaceOnUse" x="203" y="263" width="68" height="35">
<path fill-rule="evenodd" clip-rule="evenodd" d="M203.098 267.365C204.997 284.383 219.451 297.614 237 297.614C254.603 297.614 269.092 284.301 270.919 267.208C271.066 265.832 269.528 263.55 267.599 263.55C240.858 263.55 220.37 263.55 206.633 263.55C204.694 263.55 202.908 265.663 203.098 267.365Z" fill="white"/>
</mask>
<g mask="url(#mask7_1020_76)">
<path d="M256.75 243.829H219.046C214.088 243.829 210.068 247.842 210.068 252.793V263.55C210.068 268.501 214.088 272.514 219.046 272.514H256.75C261.708 272.514 265.727 268.501 265.727 263.55V252.793C265.727 247.842 261.708 243.829 256.75 243.829Z" fill="white"/>
</g>
<mask id="mask8_1020_76" style="mask-type:luminance" maskUnits="userSpaceOnUse" x="203" y="263" width="68" height="35">
<path fill-rule="evenodd" clip-rule="evenodd" d="M203.098 267.365C204.997 284.383 219.451 297.614 237 297.614C254.603 297.614 269.092 284.301 270.919 267.208C271.066 265.832 269.528 263.55 267.599 263.55C240.858 263.55 220.37 263.55 206.633 263.55C204.694 263.55 202.908 265.663 203.098 267.365Z" fill="white"/>
</mask>
<g mask="url(#mask8_1020_76)">
<path d="M228.022 322.714C238.93 322.714 247.772 313.885 247.772 302.993C247.772 292.101 238.93 283.271 228.022 283.271C217.115 283.271 208.272 292.101 208.272 302.993C208.272 313.885 217.115 322.714 228.022 322.714Z" fill="#FF4F6D"/>
<path d="M245.977 322.714C256.885 322.714 265.727 313.885 265.727 302.993C265.727 292.101 256.885 283.271 245.977 283.271C235.069 283.271 226.227 292.101 226.227 302.993C226.227 313.885 235.069 322.714 245.977 322.714Z" fill="#FF4F6D"/>
</g>
<path fill-rule="evenodd" clip-rule="evenodd" d="M215.455 233.071C215.455 240.993 225.101 247.414 237 247.414C248.899 247.414 258.545 240.993 258.545 233.071" fill="black" fill-opacity="0.16"/>
<path fill-rule="evenodd" clip-rule="evenodd" d="M184.119 158.037C173.693 158.518 156.837 166.084 157.271 176.582C157.286 176.926 157.791 177.077 158.038 176.813C162.984 171.507 198.104 166.146 210.474 168.987C211.606 169.247 212.466 168.132 211.749 167.326C205.605 160.427 193.46 157.598 184.119 158.037Z" fill="black" fill-opacity="0.6"/>
<path fill-rule="evenodd" clip-rule="evenodd" d="M291.676 158.037C302.102 158.518 318.958 166.084 318.524 176.582C318.51 176.926 318.004 177.077 317.757 176.813C312.811 171.507 277.691 166.146 265.321 168.987C264.189 169.247 263.329 168.132 264.046 167.326C270.19 160.427 282.335 157.598 291.676 158.037Z" fill="black" fill-opacity="0.6"/>
<mask id="mask9_1020_76" style="mask-type:luminance" maskUnits="userSpaceOnUse" x="0" y="0" width="474" height="502">
<path d="M474 0H0V502H474V0Z" fill="white"/>
</mask>
<g mask="url(#mask9_1020_76)">
<path fill-rule="evenodd" clip-rule="evenodd" d="M268.292 305.088C263.779 309.201 258.971 311.051 252.895 309.757C251.85 309.535 247.587 301.621 237 301.621C226.413 301.621 222.151 309.535 221.104 309.757C215.028 311.051 210.221 309.201 205.708 305.088C197.224 297.355 190.169 286.693 194.408 275.059C196.617 268.995 200.211 262.338 206.748 260.405C213.728 258.343 223.529 260.402 230.563 258.993C232.842 258.536 235.331 257.725 237 256.379C238.668 257.725 241.158 258.536 243.436 258.993C250.471 260.402 260.271 258.343 267.252 260.405C273.789 262.338 277.382 268.995 279.592 275.059C283.832 286.693 276.776 297.355 268.292 305.088ZM337.691 175.7C331.568 190.76 333.933 209.51 332.8 225.319C331.879 238.169 329.174 257.429 317.747 265.727C311.904 269.971 301.267 277.104 293.632 275.114C288.376 273.745 287.815 258.692 280.908 253.056C273.074 246.665 263.291 243.857 253.427 244.291C249.171 244.478 240.563 244.434 237 247.702C233.437 244.434 224.83 244.478 220.574 244.291C210.709 243.857 200.926 246.665 193.092 253.056C186.185 258.692 185.624 273.745 180.368 275.114C172.733 277.104 162.097 269.971 156.253 265.727C144.826 257.429 142.121 238.169 141.2 225.319C140.067 209.51 142.432 190.76 136.309 175.7C133.33 175.7 135.295 204.617 135.295 204.617V241.113C135.352 268.522 152.497 309.547 190.512 325.212C199.809 329.043 220.868 335.264 237 335.264C253.131 335.264 274.191 329.635 283.488 325.804C321.503 310.139 338.648 268.522 338.706 241.113V204.617C338.706 204.617 340.67 175.7 337.691 175.7Z" fill="#331B0C"/>
<mask id="mask10_1020_76" style="mask-type:luminance" maskUnits="userSpaceOnUse" x="134" y="175" width="206" height="161">
<path fill-rule="evenodd" clip-rule="evenodd" d="M268.292 305.088C263.779 309.201 258.971 311.051 252.895 309.757C251.85 309.535 247.587 301.621 237 301.621C226.413 301.621 222.151 309.535 221.104 309.757C215.028 311.051 210.221 309.201 205.708 305.088C197.224 297.355 190.169 286.693 194.408 275.059C196.617 268.995 200.211 262.338 206.748 260.405C213.728 258.343 223.529 260.402 230.563 258.993C232.842 258.536 235.331 257.725 237 256.379C238.668 257.725 241.158 258.536 243.436 258.993C250.471 260.402 260.271 258.343 267.252 260.405C273.789 262.338 277.382 268.995 279.592 275.059C283.832 286.693 276.776 297.355 268.292 305.088ZM337.691 175.7C331.568 190.76 333.933 209.51 332.8 225.319C331.879 238.169 329.174 257.429 317.747 265.727C311.904 269.971 301.267 277.104 293.632 275.114C288.376 273.745 287.815 258.692 280.908 253.056C273.074 246.665 263.291 243.857 253.427 244.291C249.171 244.478 240.563 244.434 237 247.702C233.437 244.434 224.83 244.478 220.574 244.291C210.709 243.857 200.926 246.665 193.092 253.056C186.185 258.692 185.624 273.745 180.368 275.114C172.733 277.104 162.097 269.971 156.253 265.727C144.826 257.429 142.121 238.169 141.2 225.319C140.067 209.51 142.432 190.76 136.309 175.7C133.33 175.7 135.295 204.617 135.295 204.617V241.113C135.352 268.522 152.497 309.547 190.512 325.212C199.809 329.043 220.868 335.264 237 335.264C253.131 335.264 274.191 329.635 283.488 325.804C321.503 310.139 338.648 268.522 338.706 241.113V204.617C338.706 204.617 340.67 175.7 337.691 175.7Z" fill="white"/>
</mask>
<g mask="url(#mask10_1020_76)">
<path d="M502.728 129.086H28.7275V566.543H502.728V129.086Z" fill="#2C1B18"/>
</g>
</g>
</g>
</g>
<defs>
<clipPath id="clip0_1020_76">
<rect width="474" height="502" fill="white"/>
</clipPath>
</defs>
</svg>
